{"title":"Colombiana 2011 R3 HDRiP XviD AC3 - iLLUSiON","uid":6730819,"size":1572205906,"categoryP":"video","categoryS":"movies","magnet":"?xt=urn:btih:54e81cc90c1baf00e695986c64798bef6c530d63&amp;dn=Colombiana+2011+R3+HDRiP+XviD+AC3+-+iLLUSiON&amp;tr=udp%3A%2F%2Ftracker.openbittorrent.com%3A80&amp;tr=udp%3A%2F%2Fopen.demonii.com%3A1337&amp;tr=udp%3A%2F%2Ftracker.coppersurfer.tk%3A6969&amp;tr=udp%3A%2F%2Fexodus.desync.com%3A6969","seeders":0,"leechers":0,"uploader":"hiest","files":-1,"time":1318140679,"description":"Full Credits To:\n\n#### ##       ##       ##     ##  ######  ####  #######  ##    ## \n ##  ##       ##       ##     ## ##    ##  ##  ##     ## ###   ## \n ##  ##       ##       ##     ## ##        ##  ##     ## ####  ## \n ##  ##       ##       ##     ##  ######   ##  ##     ## ## ## ## \n ##  ##       ##       ##     ##       ##  ##  ##     ## ##  #### \n ##  ##       ##       ##     ## ##    ##  ##  ##     ## ##   ### \n#### ######## ########  #######   ######  ####  #######  ##    ## \n\n\nMovie Info\nPlot: A young woman, after witnessing her parents' \nmurder as a child in Bogota, grows up to be a stone-cold assassin. \nIMDB:  &lt;a href=&quot;\nhttp://www.imdb.com/title/tt1657507/&quot; rel=&quot;nofollow&quot; target=&quot;_NEW&quot;&gt;\nhttp://www.imdb.com/title/tt1657507/&lt;/a&gt;\nIMDB Rating: 5.9\n\n\n\n\nGeneral Info\nSize: 1.44GB\nFormat: AVI\nRuntime: 1:47:49\n\n\n\nSources\nVideo - Colombiana.2011.KORSUB.720p.HDRip.x264.AC3-ZERO\nAudio - Colombiana.2011.KORSUB.720p.HDRip.x264.AC3-ZERO\n(Thanks)\n\n\n\nVideo Info\nID : 0\n Format : MPEG-4 Visual\n Format profile : Advanced Simple@L5\n Format settings, BVOP : 2\n Format settings, QPel : No\n Format settings, GMC : No warppoints\n Format settings, Matrix : Default (H.263)\n Muxing mode : Packed bitstream\n Codec ID : XVID\n Codec ID/Hint : XviD\n Duration : 1h 47mn\n Bit rate : 1 717 Kbps\n Width : 720 pixels\n Height : 304 pixels\n Display aspect ratio : 2.35:1\n Frame rate : 29.970 fps\n Color space : YUV\n Chroma subsampling : 4:2:0\n Bit depth : 8 bits\n Scan type : Progressive\n Compression mode : Lossy\n Bits/(Pixel*Frame) : 0.262\n Stream size : 1.29 GiB (89%)\n Writing library : XviD 58\n\n\n\nAudio Info\nID : 1\n Format : AC-3\n Format/Info : Audio Coding 3\n Mode extension : CM (complete main)\n Codec ID : 2000\n Duration : 1h 47mn\n Bit rate mode : Constant\n Bit rate : 192 Kbps\n Channel(s) : 2 channels\n Channel positions : Front: L R\n Sampling rate : 48.0 KHz\n Bit depth : 16 bits\n Compression mode : Lossy\n Stream size : 148 MiB (10%)\n Alignment : Split accross interleaves\n Interleave, duration : 33 ms (1.00 video frame)\n Interleave, preload duration : 500 ms\n\n\n Encoders Notes\n I cropped &amp; resized,lowered the brightness, \n increased the saturation, contrast &amp; gamma,\n then i lightly de-noised &amp; sharpened it.\n Overal its ok better than a R1 dvdrip imo.\n I left the subs alone as i didnt want to make the video worse.\n I would of released it earlier but i was busy.\n Theres a sample included, enjoy...\n\n\n I am looking for:\n Cammers, Cams, Screeners (any type), Cam audio, Line audio, \n Un-released DVD-R's (any region) &amp; PPVRiP's. \n If you can provide any of these please\n contact me at &lt;a class=&quot;__cf_email__&quot; href=&quot;/cdn-cgi/l/email-protection&quot; data-cfemail=&quot;a9c0c5c5dcdac0c6c7e9c1dcdac1c4c8c0c587c4cc&quot;&gt;[email&amp;#160;protected]&lt;/a&gt;&lt;script data-cfhash='f9e31' type=&quot;text/javascript&quot;&gt;\n/* &lt;![CDATA[ */!function(){try{var t=&quot;currentScript&quot;in document?document.currentScript:function(){for(var t=document.getElementsByTagName(&quot;script&quot;),e=t.length;e--;)if(t[e].getAttribute(&quot;data-cfhash&quot;))return t[e]}();if(t&amp;&amp;t.previousSibling){var e,r,n,i,c=t.previousSibling,a=c.getAttribute(&quot;data-cfemail&quot;);if(a){for(e=&quot;&quot;,r=parseInt(a.substr(0,2),16),n=2;a.length-n;n+=2)i=parseInt(a.substr(n,2),16)^r,e+=String.fromCharCode(i);e=document.createTextNode(e),c.parentNode.replaceChild(e,c)}t.parentNode.removeChild(t);}}catch(u){}}()/* ]]&gt; */&lt;/script&gt;\n\n\nScreen Shots:\n &lt;a href=&quot;\nhttp://shareimage.org/images/edy87gk9nx7m74d4lm3f.jpg&quot; rel=&quot;nofollow&quot; target=&quot;_NEW&quot;&gt;\nhttp://shareimage.org/images/edy87gk9nx7m74d4lm3f.jpg&lt;/a&gt;\n &lt;a href=&quot;\nhttp://shareimage.org/images/js0d8k4v3zhzni8u1c.jpg&quot; rel=&quot;nofollow&quot; target=&quot;_NEW&quot;&gt;\nhttp://shareimage.org/images/js0d8k4v3zhzni8u1c.jpg&lt;/a&gt;\n &lt;a href=&quot;\nhttp://shareimage.org/images/o3pgnivhgxgfj5np60uc.jpg&quot; rel=&quot;nofollow&quot; target=&quot;_NEW&quot;&gt;\nhttp://shareimage.org/images/o3pgnivhgxgfj5np60uc.jpg&lt;/a&gt;\n &lt;a href=&quot;\nhttp://shareimage.org/images/lnsj450h0fej21zfxuwk.jpg&quot; rel=&quot;nofollow&quot; target=&quot;_NEW&quot;&gt;\nhttp://shareimage.org/images/lnsj450h0fej21zfxuwk.jpg&lt;/a&gt;\n &lt;a href=&quot;\nhttp://shareimage.org/images/fn4g7wnxwqd2oe4xf9wt.jpg&quot; rel=&quot;nofollow&quot; target=&quot;_NEW&quot;&gt;\nhttp://shareimage.org/images/fn4g7wnxwqd2oe4xf9wt.jpg&lt;/a&gt;\n &lt;a href=&quot;\nhttp://shareimage.org/images/vj5xk2rgiftxw2drpaia.jpg&quot; rel=&quot;nofollow&quot; target=&quot;_NEW&quot;&gt;\nhttp://shareimage.org/images/vj5xk2rgiftxw2drpaia.jpg&lt;/a&gt;\n\n\nFull Credits To:\n\n#### ##       ##       ##     ##  ######  ####  #######  ##    ## \n ##  ##       ##       ##     ## ##    ##  ##  ##     ## ###   ## \n ##  ##       ##       ##     ## ##        ##  ##     ## ####  ## \n ##  ##       ##       ##     ##  ######   ##  ##     ## ## ## ## \n ##  ##       ##       ##     ##       ##  ##  ##     ## ##  #### \n ##  ##       ##       ##     ## ##    ##  ##  ##     ## ##   ### \n#### ######## ########  #######   ######  ####  #######  ##    ## ","torrent":{"xt":"urn:btih:54e81cc90c1baf00e695986c64798bef6c530d63","amp;dn":"Colombiana+2011+R3+HDRiP+XviD+AC3+-+iLLUSiON","amp;tr":["udp%3A%2F%2Ftracker.openbittorrent.com%3A80","udp%3A%2F%2Fopen.demonii.com%3A1337","udp%3A%2F%2Ftracker.coppersurfer.tk%3A6969","udp%3A%2F%2Fexodus.desync.com%3A6969"],"infoHash":"54e81cc90c1baf00e695986c64798bef6c530d63","infoHashBuffer":{"type":"Buffer","data":[84,232,28,201,12,27,175,0,230,149,152,108,100,121,139,239,108,83,13,99]},"announce":[],"urlList":[]}}